<svg id="Capa_10" data-name="Capa 10" xmlns="http://www.w3.org/2000/svg" viewBox="0 0 47.01 47.01"><defs><style>.cls-1{fill:#6dc7dd;}</style></defs><path class="cls-1" d="M1279,335.3h-4.76a17.31,17.31,0,0,0-1.75-4.23l3.37-3.37a1.57,1.57,0,0,0,0-2.2l-4.37-4.36a1.55,1.55,0,0,0-2.2,0l-3.36,3.36a18.06,18.06,0,0,0-4.23-1.75V318a1.56,1.56,0,0,0-1.56-1.56h-6.17a1.56,1.56,0,0,0-1.56,1.56v4.76a17.71,17.71,0,0,0-4.23,1.75l-3.36-3.36a1.56,1.56,0,0,0-2.21,0l-4.36,4.36a1.55,1.55,0,0,0,0,2.2l3.36,3.37a17.68,17.68,0,0,0-1.74,4.23h-4.77a1.54,1.54,0,0,0-1.55,1.55V343a1.55,1.55,0,0,0,1.55,1.56h4.77a17.68,17.68,0,0,0,1.74,4.23l-3.36,3.37a1.55,1.55,0,0,0,0,2.2l4.36,4.36a1.56,1.56,0,0,0,2.21,0l3.36-3.36a18.13,18.13,0,0,0,4.23,1.75v4.76a1.55,1.55,0,0,0,1.56,1.55h6.17a1.55,1.55,0,0,0,1.56-1.55v-4.76a18.49,18.49,0,0,0,4.23-1.75l3.36,3.36a1.55,1.55,0,0,0,2.2,0l4.37-4.36a1.57,1.57,0,0,0,0-2.2l-3.37-3.37a17.31,17.31,0,0,0,1.75-4.23H1279a1.56,1.56,0,0,0,1.56-1.56v-6.17A1.55,1.55,0,0,0,1279,335.3Zm-22,13.36a8.73,8.73,0,1,1,8.73-8.72A8.71,8.71,0,0,1,1257,348.66Z" transform="translate(-1233.5 -316.43)"/><circle class="cls-1" cx="23.51" cy="23.51" r="3.79"/></svg>