<svg id="Capa_10" data-name="Capa 10" xmlns="http://www.w3.org/2000/svg" viewBox="0 0 48.91 47.15"><defs><style>.cls-1{fill:#6dc7dd;}</style></defs><path class="cls-1" d="M1205.77,323.23h-38.33a5.29,5.29,0,0,0-5.29,5.29v28.1a5.29,5.29,0,0,0,5.29,5.28h.64l.14,7.16a1.34,1.34,0,0,0,2,1.12l8.58-5.18,5.14-3.1h21.79a5.29,5.29,0,0,0,5.29-5.28v-28.1A5.29,5.29,0,0,0,1205.77,323.23Zm2.33,30.09a4.62,4.62,0,0,1-4.61,4.61h-33.77a4.62,4.62,0,0,1-4.61-4.61V331.75a4.61,4.61,0,0,1,4.61-4.61h33.77a4.61,4.61,0,0,1,4.61,4.61Z" transform="translate(-1162.15 -323.23)"/><circle class="cls-1" cx="16.13" cy="19.3" r="2.59"/><circle class="cls-1" cx="24.74" cy="19.3" r="2.59"/><circle class="cls-1" cx="32.78" cy="19.3" r="2.59"/></svg>