<svg id="Capa_10" data-name="Capa 10" xmlns="http://www.w3.org/2000/svg" viewBox="0 0 45.66 41.18"><defs><style>.cls-1{fill:#075f73;}</style></defs><path class="cls-1" d="M1692.2,432.66c-.8,0-1.6,0-2.41,0-.42,0-.59-.18-.59-.58,0-1.4,0-2.79,0-4.19a.5.5,0,0,1,.57-.57h4.9c.38,0,.56.17.56.57q0,2.12,0,4.23c0,.38-.16.54-.54.54C1693.86,432.65,1693,432.66,1692.2,432.66Z" transform="translate(-1682.27 -395.75)"/><path class="cls-1" d="M1692.23,419.91h2.49c.36,0,.51.15.51.51,0,1.42,0,2.84,0,4.27,0,.39-.19.54-.55.54h-4.94a.48.48,0,0,1-.54-.55c0-1.41,0-2.82,0-4.23,0-.39.18-.56.58-.55C1690.59,419.92,1691.41,419.91,1692.23,419.91Z" transform="translate(-1682.27 -395.75)"/><path class="cls-1" d="M1700.76,432.66h-2.36c-.53,0-.62-.1-.63-.63v-4.1c0-.49.12-.6.61-.6h4.81c.48,0,.59.12.59.61,0,1.38,0,2.76,0,4.14,0,.43-.17.59-.58.58C1702.39,432.65,1701.57,432.66,1700.76,432.66Z" transform="translate(-1682.27 -395.75)"/><path class="cls-1" d="M1709.32,432.66c-.8,0-1.6,0-2.4,0-.43,0-.59-.18-.59-.58,0-1.4,0-2.79,0-4.19,0-.39.17-.57.57-.57h4.9c.38,0,.56.17.55.57q0,2.12,0,4.23c0,.38-.16.54-.53.54C1711,432.65,1710.16,432.66,1709.32,432.66Z" transform="translate(-1682.27 -395.75)"/><path class="cls-1" d="M1709.36,417.77h-2.5c-.36,0-.52-.15-.52-.5,0-1.44,0-2.88,0-4.32a.44.44,0,0,1,.5-.5h5c.31,0,.47.17.47.51q0,2.16,0,4.32c0,.34-.16.48-.49.48Z" transform="translate(-1682.27 -395.75)"/><path class="cls-1" d="M1700.8,417.77h-2.5c-.36,0-.53-.15-.53-.5V413a.44.44,0,0,1,.5-.5h5q.48,0,.48.51,0,2.16,0,4.32c0,.34-.16.48-.5.48Z" transform="translate(-1682.27 -395.75)"/><path class="cls-1" d="M1717.89,417.77h-2.45c-.38,0-.54-.16-.54-.53,0-1.41,0-2.82,0-4.23,0-.41.19-.56.57-.56h4.86c.41,0,.59.16.59.59,0,1.38,0,2.76,0,4.15,0,.51-.08.58-.61.58Z" transform="translate(-1682.27 -395.75)"/><path class="cls-1" d="M1700.81,419.91h2.45c.38,0,.53.15.53.53q0,2.12,0,4.23c0,.41-.19.56-.57.56h-4.89c-.39,0-.56-.19-.56-.58,0-1.39,0-2.78,0-4.18,0-.41.18-.58.6-.57C1699.18,419.92,1700,419.91,1700.81,419.91Z" transform="translate(-1682.27 -395.75)"/><path class="cls-1" d="M1709.36,419.91h2.45c.38,0,.54.14.54.52,0,1.41,0,2.82,0,4.24,0,.41-.19.56-.56.56h-4.86c-.41,0-.6-.17-.6-.59,0-1.39,0-2.79,0-4.19,0-.39.18-.56.58-.55C1707.72,419.92,1708.54,419.91,1709.36,419.91Z" transform="translate(-1682.27 -395.75)"/><path class="cls-1" d="M1717.92,419.91h2.45c.38,0,.55.13.54.52,0,1.41,0,2.82,0,4.24,0,.37-.15.55-.52.56h-5a.47.47,0,0,1-.54-.54c0-1.43,0-2.86,0-4.28,0-.35.16-.51.52-.5Z" transform="translate(-1682.27 -395.75)"/><path class="cls-1" d="M1724.72,395.75h-39.23a3.22,3.22,0,0,0-3.22,3.22v34.75a3.22,3.22,0,0,0,3.22,3.21h39.23a3.21,3.21,0,0,0,3.21-3.21V399A3.21,3.21,0,0,0,1724.72,395.75Zm-7.65,2.88a3,3,0,1,1-3,2.95A3,3,0,0,1,1717.07,398.63Zm-23,0a3,3,0,1,1-3,2.95A3,3,0,0,1,1694.05,398.63Zm32.11,34.55c0,1.1-1.32,2-3,2h-36.12c-1.64,0-3-.89-3-2V411.56c0-1.1,1.32-2,3-2h36.12c1.63,0,3,.9,3,2Z" transform="translate(-1682.27 -395.75)"/></svg>