<svg id="Capa_8" data-name="Capa 8" xmlns="http://www.w3.org/2000/svg" viewBox="0 0 68.54 37.71"><defs><style>.cls-1{fill:#6dc7dd;}</style></defs><path class="cls-1" d="M2544.3,217.21A17.78,17.78,0,1,0,2562.08,235,17.78,17.78,0,0,0,2544.3,217.21Zm0,30A12.26,12.26,0,1,1,2556.57,235,12.26,12.26,0,0,1,2544.3,247.25Z" transform="translate(-2526.52 -216.5)"/><rect class="cls-1" x="2546.38" y="243.03" width="18.22" height="6.15" rx="1.21" transform="translate(-1604.02 -1951.43) rotate(45)"/><path class="cls-1" d="M2542.45,232.15l-1.52-2.69-1.5-2.67a.42.42,0,0,0-.73,0l-1.5,2.67-1.52,2.69a.42.42,0,0,0,.36.62h1.29l.45-1,1-2.18a.26.26,0,0,1,.49,0l1,2.18.45,1h1.28A.42.42,0,0,0,2542.45,232.15Z" transform="translate(-2526.52 -216.5)"/><path class="cls-1" d="M2552.59,232.15l-1.52-2.69-1.5-2.67a.42.42,0,0,0-.73,0l-1.5,2.67-1.52,2.69a.42.42,0,0,0,.37.62h1.28l.45-1,1-2.18a.26.26,0,0,1,.49,0l1,2.18.45,1h1.29A.42.42,0,0,0,2552.59,232.15Z" transform="translate(-2526.52 -216.5)"/><path class="cls-1" d="M2577.46,216.76h-1.52a1.22,1.22,0,0,0-1.21,1.22v11.51a7.09,7.09,0,1,0,0,8.19v1.06a1.21,1.21,0,0,0,1.21,1.22h1.52a1.22,1.22,0,0,0,1.22-1.22V218A1.22,1.22,0,0,0,2577.46,216.76Zm-8.51,20.8a4,4,0,1,1,4-4A4,4,0,0,1,2569,237.56Z" transform="translate(-2526.52 -216.5)"/><path class="cls-1" d="M2593.85,216.5h-1.53a1.22,1.22,0,0,0-1.21,1.22v11.51a7.09,7.09,0,1,0,0,8.19v1.06a1.22,1.22,0,0,0,1.21,1.22h1.53a1.22,1.22,0,0,0,1.21-1.22V217.72A1.22,1.22,0,0,0,2593.85,216.5Zm-8.52,20.8a4,4,0,1,1,4-4A4,4,0,0,1,2585.33,237.3Z" transform="translate(-2526.52 -216.5)"/></svg>