<svg id="Capa_10" data-name="Capa 10" xmlns="http://www.w3.org/2000/svg" viewBox="0 0 48.91 47.15"><defs><style>.cls-1{fill:#075f73;}</style></defs><path class="cls-1" d="M1131.79,325.65h-38.34a5.28,5.28,0,0,0-5.29,5.28V359a5.29,5.29,0,0,0,5.29,5.29h.64l.14,7.15a1.35,1.35,0,0,0,2,1.13l8.59-5.18,5.14-3.1h21.79a5.29,5.29,0,0,0,5.29-5.29v-28.1A5.28,5.28,0,0,0,1131.79,325.65Zm2.32,30.08a4.6,4.6,0,0,1-4.61,4.61h-33.76a4.6,4.6,0,0,1-4.61-4.61V334.17a4.6,4.6,0,0,1,4.61-4.61h33.76a4.6,4.6,0,0,1,4.61,4.61Z" transform="translate(-1088.16 -325.65)"/><circle class="cls-1" cx="16.13" cy="19.3" r="2.59"/><circle class="cls-1" cx="24.74" cy="19.3" r="2.59"/><circle class="cls-1" cx="32.78" cy="19.3" r="2.59"/></svg>