<svg id="Capa_9" data-name="Capa 9" xmlns="http://www.w3.org/2000/svg" viewBox="0 0 449.01 841.19"><defs><style>.cls-1,.cls-10,.cls-3,.cls-4,.cls-5,.cls-6,.cls-7,.cls-8,.cls-9{fill:#6dc7dd;}.cls-1,.cls-2{opacity:0.1;}.cls-4{font-size:14.66px;}.cls-10,.cls-4,.cls-5,.cls-6,.cls-7,.cls-8,.cls-9{font-family:Arial-BoldMT, Arial;font-weight:700;}.cls-5{font-size:11.17px;}.cls-6{font-size:32.38px;}.cls-7{font-size:20.14px;}.cls-8{font-size:18.58px;}.cls-9{font-size:40.35px;}.cls-10{font-size:10.74px;}</style></defs><path class="cls-1" d="M318.35,5.29l-5.1,22.46A14.27,14.27,0,1,0,308.87,47l-.9,4,7.79,1.77L326.14,7.06ZM299.83,44.77a7.1,7.1,0,1,1,8.5-5.35A7.1,7.1,0,0,1,299.83,44.77Z" transform="translate(-8.54 -0.7)"/><path class="cls-1" d="M455.72,30.78,440,27.21a10,10,0,1,0-13.5-3.06l-2.79-.64L422.47,29l32,7.26Zm-27.64-13a5,5,0,1,1,3.74,5.94A5,5,0,0,1,428.08,17.82Z" transform="translate(-8.54 -0.7)"/><path class="cls-1" d="M154.52,6.16l15.72,3.56a10,10,0,1,0,13.5,3.07l2.79.63L187.76,8,155.76.7Zm27.64,13a5,5,0,1,1-3.74-6A5,5,0,0,1,182.16,19.12Z" transform="translate(-8.54 -0.7)"/><path class="cls-1" d="M14,36.3l3.57-15.73a10,10,0,1,0,3.06-13.5l.64-2.78L15.8,3.05l-7.26,32ZM27,8.65A5,5,0,1,1,21,12.4,5,5,0,0,1,27,8.65Z" transform="translate(-8.54 -0.7)"/><path class="cls-1" d="M90.44,65l-8.36-1.9a5.31,5.31,0,1,0-7.92-5.72,5.23,5.23,0,0,0,.74,4.09l-1.48-.33L72.76,64l17,3.86Zm-14.7-6.89a2.65,2.65,0,1,1,2,3.16A2.64,2.64,0,0,1,75.74,58.06Z" transform="translate(-8.54 -0.7)"/><path class="cls-1" d="M240,83l-11.67,7.35a8.55,8.55,0,1,0-10,6.32l-2.07,1.3,2.55,4,23.76-15Zm-24.57,8.88a4.25,4.25,0,1,1,5.87,1.33A4.24,4.24,0,0,1,215.39,91.85Z" transform="translate(-8.54 -0.7)"/><g class="cls-2"><path class="cls-3" d="M40.42,85.87l1.48-6.55a16.32,16.32,0,1,0-5.52-1.45l-1.53,6.74ZM33.65,69.09A11.37,11.37,0,1,1,43,74.38l1.13-5-5.56-1.26-1.06,4.67A11.35,11.35,0,0,1,33.65,69.09Z" transform="translate(-8.54 -0.7)"/><text class="cls-4" transform="matrix(0.53, 0.85, -0.85, 0.53, 27.15, 57.11)">^^</text></g><g class="cls-2"><path class="cls-3" d="M64.2,22.93l5,1.14a12.5,12.5,0,1,0,1.11-4.21L65.16,18.7ZM77,17.78a8.65,8.65,0,1,1-4,7.14l3.78.86,1-4.24-3.56-.81A8.63,8.63,0,0,1,77,17.78Z" transform="translate(-8.54 -0.7)"/><text class="cls-5" transform="matrix(-0.85, 0.53, -0.53, -0.85, 77.12, 18.64)">^^</text></g><g class="cls-2"><path class="cls-3" d="M173.69,105.88l-7.9-12.55a36.14,36.14,0,1,0-10.89,6.35L163,112.59ZM136.93,90.23a25.09,25.09,0,1,1,22.89-6.36l-6-9.5-10.66,6.71,5.64,9A24.85,24.85,0,0,1,136.93,90.23Z" transform="translate(-8.54 -0.7)"/><text class="cls-6" transform="translate(113.82 68.69) rotate(12.79)">^^</text></g><g class="cls-2"><path class="cls-3" d="M251.92,25.51l-7.81,4.91a22.46,22.46,0,1,0,3.95,6.77l8-5Zm-9.73,22.87a15.6,15.6,0,1,1-4-14.25l-5.91,3.73,4.17,6.62,5.57-3.5A15.65,15.65,0,0,1,242.19,48.38Z" transform="translate(-8.54 -0.7)"/><text class="cls-7" transform="translate(220.75 56.7) rotate(-77.21)">^^</text></g><g class="cls-2"><path class="cls-3" d="M268.32,65.16l4.53,7.2a20.68,20.68,0,1,0,6.25-3.65l-4.67-7.41Zm21.1,9a14.39,14.39,0,1,1-13.15,3.65l3.44,5.45,6.12-3.85-3.24-5.13A14.31,14.31,0,0,1,289.42,74.14Z" transform="translate(-8.54 -0.7)"/><text class="cls-8" transform="translate(289.26 85.34) rotate(-167.21)">^^</text></g><g class="cls-2"><path class="cls-3" d="M327.48,98l15.64-9.85a45,45,0,1,0-7.91-13.57L319.12,84.68ZM347,52.14a31.26,31.26,0,1,1,7.93,28.54l11.85-7.46-8.37-13.28-11.15,7A31.13,31.13,0,0,1,347,52.14Z" transform="translate(-8.54 -0.7)"/><text class="cls-9" transform="translate(364.38 33.27) rotate(102.79)">^^</text></g><path class="cls-1" d="M145.91,235.92l5.1-22.46a14.27,14.27,0,1,0,4.37-19.27l.91-4-7.79-1.77-10.38,45.71Zm18.51-39.48a7.1,7.1,0,1,1-8.49,5.35A7.09,7.09,0,0,1,164.42,196.44Z" transform="translate(-8.54 -0.7)"/><path class="cls-1" d="M8.54,210.43,24.26,214a10,10,0,1,0,13.5,3.06l2.79.64,1.23-5.46L9.77,205Zm27.64,13a5,5,0,1,1-3.75-5.94A5,5,0,0,1,36.18,223.39Z" transform="translate(-8.54 -0.7)"/><path class="cls-1" d="M309.74,235.06,294,231.49a10,10,0,1,0-13.49-3.07l-2.79-.63-1.24,5.45,32,7.27Zm-27.64-13a5,5,0,1,1,3.74,5.95A5,5,0,0,1,282.1,222.09Z" transform="translate(-8.54 -0.7)"/><path class="cls-1" d="M450.27,204.92l-3.57,15.72a10,10,0,1,0-3.07,13.5l-.63,2.78,5.45,1.24,7.27-32Zm-13,27.64a5,5,0,1,1,5.95-3.75A5,5,0,0,1,437.3,232.56Z" transform="translate(-8.54 -0.7)"/><path class="cls-1" d="M442.32,115.94,418.37,131A17.54,17.54,0,1,0,397.81,144l-4.24,2.68,5.23,8.3,48.75-30.71Zm-50.41,18.23a8.73,8.73,0,1,1,12,2.73A8.74,8.74,0,0,1,391.91,134.17Z" transform="translate(-8.54 -0.7)"/><path class="cls-1" d="M373.81,176.26l8.37,1.9a5.25,5.25,0,0,0-2.44,3.37,5.31,5.31,0,1,0,9.62-1.74l1.48.34.66-2.9-17-3.87Zm14.71,6.9a2.65,2.65,0,1,1-2-3.17A2.65,2.65,0,0,1,388.52,183.16Z" transform="translate(-8.54 -0.7)"/><path class="cls-1" d="M224.29,158.24,236,150.89a8.55,8.55,0,1,0,10-6.32l2.07-1.3-2.55-4.05-23.77,15Zm24.58-8.88A4.25,4.25,0,1,1,243,148,4.25,4.25,0,0,1,248.87,149.36Z" transform="translate(-8.54 -0.7)"/><g class="cls-2"><path class="cls-3" d="M423.84,155.34l-1.49,6.55a16.33,16.33,0,1,0,5.52,1.45l1.53-6.74Zm6.76,16.78a11.36,11.36,0,1,1-9.37-5.29l-1.12,5,5.56,1.26,1.06-4.67A11.32,11.32,0,0,1,430.6,172.12Z" transform="translate(-8.54 -0.7)"/><text class="cls-4" transform="matrix(-0.53, -0.85, 0.85, -0.53, 420.04, 182.7)">^^</text></g><g class="cls-2"><path class="cls-3" d="M400.06,218.28l-5-1.14a12.47,12.47,0,1,0-1.11,4.21l5.14,1.17Zm-12.79,5.15a8.67,8.67,0,1,1,4-7.14l-3.78-.86-1,4.24,3.56.81A8.63,8.63,0,0,1,387.27,223.43Z" transform="translate(-8.54 -0.7)"/><text class="cls-5" transform="matrix(0.85, -0.53, 0.53, 0.85, 370.07, 221.16)">^^</text></g><g class="cls-2"><path class="cls-3" d="M290.57,135.33l7.9,12.55a36.11,36.11,0,1,0,10.88-6.35l-8.13-12.91ZM327.33,151a25.07,25.07,0,1,1-22.9,6.36l6,9.5,10.65-6.71-5.63-8.95A24.85,24.85,0,0,1,327.33,151Z" transform="translate(-8.54 -0.7)"/><text class="cls-6" transform="translate(333.36 171.11) rotate(-167.21)">^^</text></g><g class="cls-2"><path class="cls-3" d="M212.34,215.7l7.8-4.91a22.46,22.46,0,1,0-3.95-6.77l-8,5.06Zm9.73-22.87a15.6,15.6,0,1,1,4,14.25l5.91-3.73-4.17-6.62-5.57,3.5A15.52,15.52,0,0,1,222.07,192.83Z" transform="translate(-8.54 -0.7)"/><text class="cls-7" transform="translate(226.44 183.11) rotate(102.79)">^^</text></g><g class="cls-2"><path class="cls-3" d="M195.94,176.05l-4.54-7.2a20.71,20.71,0,0,0-8.79-36,20.73,20.73,0,1,0,2.55,39.68l4.67,7.41Zm-21.1-9a14.39,14.39,0,1,1,17.21-10.84,14.22,14.22,0,0,1-4.07,7.19L184.55,158l-6.12,3.85,3.24,5.13A14.31,14.31,0,0,1,174.84,167.07Z" transform="translate(-8.54 -0.7)"/><text class="cls-8" transform="translate(157.92 154.47) rotate(12.79)">^^</text></g><g class="cls-2"><path class="cls-3" d="M122.6,219,120,214.83a12,12,0,1,0-3.61,2.1l2.7,4.28Zm-12.19-5.19a8.33,8.33,0,1,1,7.59-2.11l-2-3.16-3.54,2.23,1.87,3A8.31,8.31,0,0,1,110.41,213.8Z" transform="translate(-8.54 -0.7)"/><text class="cls-10" transform="translate(97.02 206.23) rotate(12.79)">^^</text></g><g class="cls-2"><path class="cls-3" d="M119,108.47l-15.64,9.85a44.93,44.93,0,1,0,7.92,13.56l16.08-10.13Zm-19.5,45.82a31.26,31.26,0,1,1-7.93-28.54l-11.85,7.46,8.37,13.28,11.15-7A31,31,0,0,1,99.49,154.29Z" transform="translate(-8.54 -0.7)"/><text class="cls-9" transform="translate(65.02 171.75) rotate(-77.21)">^^</text></g><path class="cls-1" d="M318.35,504l-5.1,22.46a14.27,14.27,0,1,0-4.38,19.28l-.9,4,7.79,1.76,10.38-45.71Zm-18.52,39.48a7.1,7.1,0,1,1,8.5-5.35A7.1,7.1,0,0,1,299.83,543.43Z" transform="translate(-8.54 -0.7)"/><path class="cls-1" d="M416.4,828.06l10.93-20.27a14.28,14.28,0,1,0,9.38-17.4l1.93-3.59-7-3.79-22.25,41.26ZM444.81,795a7.1,7.1,0,1,1-9.61,2.88A7.09,7.09,0,0,1,444.81,795Z" transform="translate(-8.54 -0.7)"/><path class="cls-1" d="M455.72,529.45,440,525.88a10,10,0,1,0-13.5-3.07l-2.79-.63-1.24,5.45,32,7.27Zm-27.64-13a5,5,0,1,1,3.74,5.95A5,5,0,0,1,428.08,516.48Z" transform="translate(-8.54 -0.7)"/><path class="cls-1" d="M154.52,504.82l15.72,3.57a10,10,0,1,0,13.5,3.06l2.79.64,1.23-5.46-32-7.26Zm27.64,13a5,5,0,1,1-3.74-5.94A5,5,0,0,1,182.16,517.78Z" transform="translate(-8.54 -0.7)"/><path class="cls-1" d="M14,535l3.57-15.72a10,10,0,1,0,3.06-13.5l.64-2.79-5.46-1.24-7.26,32Zm13-27.64A5,5,0,1,1,21,511.06,5,5,0,0,1,27,507.32Z" transform="translate(-8.54 -0.7)"/><path class="cls-1" d="M90.44,563.62l-8.36-1.9a5.31,5.31,0,1,0-7.18-1.63l-1.48-.34-.66,2.9,17,3.87Zm-14.7-6.9a2.65,2.65,0,1,1,2,3.16A2.64,2.64,0,0,1,75.74,556.72Z" transform="translate(-8.54 -0.7)"/><path class="cls-1" d="M240,581.63,228.29,589a8.55,8.55,0,1,0-10,6.31l-2.07,1.31,2.55,4,23.76-15Zm-24.57,8.89a4.26,4.26,0,1,1,5.87,1.33A4.26,4.26,0,0,1,215.39,590.52Z" transform="translate(-8.54 -0.7)"/><g class="cls-2"><path class="cls-3" d="M40.42,584.54,41.9,578a16.35,16.35,0,1,0-12.48-7.57,16.16,16.16,0,0,0,7,6.11l-1.53,6.74Zm-6.77-16.79a11.36,11.36,0,1,1,9.37,5.3l1.13-5-5.56-1.27-1.06,4.67A11.26,11.26,0,0,1,33.65,567.75Z" transform="translate(-8.54 -0.7)"/><text class="cls-4" transform="matrix(0.53, 0.85, -0.85, 0.53, 27.15, 555.77)">^^</text></g><g class="cls-2"><path class="cls-3" d="M64.2,521.6l5,1.13a12.5,12.5,0,1,0,1.11-4.2l-5.14-1.17ZM77,516.45a8.65,8.65,0,1,1-4,7.14l3.78.85,1-4.23-3.56-.81A8.54,8.54,0,0,1,77,516.45Z" transform="translate(-8.54 -0.7)"/><text class="cls-5" transform="matrix(-0.85, 0.53, -0.53, -0.85, 77.11, 517.31)">^^</text></g><g class="cls-2"><path class="cls-3" d="M173.69,604.54,165.79,592a36.1,36.1,0,1,0-10.89,6.35L163,611.26ZM136.93,588.9a25.09,25.09,0,1,1,22.89-6.36l-6-9.51-10.66,6.72,5.64,8.94A25,25,0,0,1,136.93,588.9Z" transform="translate(-8.54 -0.7)"/><text class="cls-6" transform="translate(113.82 567.36) rotate(12.79)">^^</text></g><g class="cls-2"><path class="cls-3" d="M251.92,524.17l-7.81,4.92a22.45,22.45,0,1,0,3.95,6.77l8-5.06ZM242.19,547a15.62,15.62,0,1,1-4-14.24l-5.91,3.72,4.17,6.63,5.57-3.51A15.65,15.65,0,0,1,242.19,547Z" transform="translate(-8.54 -0.7)"/><text class="cls-7" transform="translate(220.75 555.36) rotate(-77.21)">^^</text></g><g class="cls-2"><path class="cls-3" d="M268.32,563.82l4.53,7.2a20.77,20.77,0,1,0,6.25-3.64L274.43,560Zm21.1,9a14.41,14.41,0,1,1-13.15,3.66l3.44,5.45,6.12-3.85-3.24-5.14A14.31,14.31,0,0,1,289.42,572.8Z" transform="translate(-8.54 -0.7)"/><text class="cls-8" transform="translate(289.26 584) rotate(-167.21)">^^</text></g><g class="cls-2"><path class="cls-3" d="M327.48,596.62l15.64-9.85a45,45,0,1,0-7.91-13.56l-16.09,10.13ZM347,550.8a31.26,31.26,0,1,1,7.93,28.54l11.85-7.46-8.37-13.28-11.15,7A31.17,31.17,0,0,1,347,550.8Z" transform="translate(-8.54 -0.7)"/><text class="cls-9" transform="translate(364.38 531.93) rotate(102.79)">^^</text></g><path class="cls-1" d="M131.41,841.89l5.1-22.46a14.26,14.26,0,1,0,4.37-19.28l.9-4L134,794.41l-10.38,45.71Zm18.51-39.48a7.1,7.1,0,1,1-8.49,5.35A7.09,7.09,0,0,1,149.92,802.41Z" transform="translate(-8.54 -0.7)"/><path class="cls-1" d="M359.31,782.23l8.37,1.9a5.25,5.25,0,0,0-2.44,3.37,5.31,5.31,0,1,0,9.62-1.74l1.48.33.65-2.9-17-3.86ZM374,789.12a2.65,2.65,0,1,1-2-3.16A2.65,2.65,0,0,1,374,789.12Z" transform="translate(-8.54 -0.7)"/><path class="cls-1" d="M209.79,764.21l11.68-7.36a8.55,8.55,0,1,0,10-6.31l2.07-1.3-2.55-4-23.77,15Zm24.58-8.88A4.25,4.25,0,1,1,228.5,754,4.25,4.25,0,0,1,234.37,755.33Z" transform="translate(-8.54 -0.7)"/><g class="cls-2"><path class="cls-3" d="M407.48,742.87,406,749.42a16.35,16.35,0,1,0,5.52,1.45l1.53-6.74Zm6.76,16.78a11.35,11.35,0,1,1-15.65-3.55,11.24,11.24,0,0,1,6.28-1.74l-1.12,5,5.56,1.26,1.06-4.67A11.23,11.23,0,0,1,414.24,759.65Z" transform="translate(-8.54 -0.7)"/><text class="cls-4" transform="matrix(-0.53, -0.85, 0.85, -0.53, 403.67, 770.23)">^^</text></g><g class="cls-2"><path class="cls-3" d="M280.35,753.37l7.91,12.55a36.06,36.06,0,1,0,10.88-6.35L291,746.66ZM317.12,769a25.09,25.09,0,1,1-22.9,6.36l6,9.5,10.66-6.71-5.64-8.94A24.76,24.76,0,0,1,317.12,769Z" transform="translate(-8.54 -0.7)"/><text class="cls-6" transform="translate(323.15 789.15) rotate(-167.21)">^^</text></g><g class="cls-2"><path class="cls-3" d="M197.84,821.67l7.8-4.92a22.42,22.42,0,1,0-3.95-6.76l-8,5Zm9.73-22.87a15.6,15.6,0,1,1,4,14.25l5.91-3.73-4.18-6.63-5.56,3.51A15.53,15.53,0,0,1,207.57,798.8Z" transform="translate(-8.54 -0.7)"/><text class="cls-7" transform="translate(211.94 789.08) rotate(102.79)">^^</text></g><g class="cls-2"><path class="cls-3" d="M181.44,782l-4.54-7.2a20.65,20.65,0,1,0-6.24,3.65l4.66,7.4Zm-21.1-9a14.39,14.39,0,1,1,17.21-10.84,14.22,14.22,0,0,1-4.07,7.19l-3.43-5.46-6.12,3.86,3.24,5.13A14.31,14.31,0,0,1,160.34,773Z" transform="translate(-8.54 -0.7)"/><text class="cls-8" transform="translate(143.42 760.44) rotate(12.79)">^^</text></g><g class="cls-2"><path class="cls-3" d="M122.27,749.22l-15.63,9.85a45,45,0,1,0,7.91,13.57l16.09-10.14ZM102.77,795a31.26,31.26,0,1,1-7.93-28.54L83,774l8.37,13.28,11.15-7A31.13,31.13,0,0,1,102.77,795Z" transform="translate(-8.54 -0.7)"/><text class="cls-9" transform="translate(68.3 812.51) rotate(-77.21)">^^</text></g><path class="cls-1" d="M145.91,734.59l5.1-22.46a14.27,14.27,0,1,0,4.37-19.28l.91-4-7.79-1.76-10.38,45.71Zm18.51-39.48a7.1,7.1,0,1,1-8.49,5.35A7.08,7.08,0,0,1,164.42,695.11Z" transform="translate(-8.54 -0.7)"/><path class="cls-1" d="M8.54,709.1l15.72,3.56a10,10,0,1,0,13.5,3.07l2.79.63,1.23-5.45-32-7.27Zm27.64,13a5,5,0,1,1-3.75-5.95A5,5,0,0,1,36.18,722.06Z" transform="translate(-8.54 -0.7)"/><path class="cls-1" d="M309.74,733.72,294,730.15a10,10,0,1,0-13.49-3.06l-2.79-.64-1.24,5.46,32,7.26Zm-27.64-13a5,5,0,1,1,3.74,5.94A5,5,0,0,1,282.1,720.76Z" transform="translate(-8.54 -0.7)"/><path class="cls-1" d="M450.27,703.58l-3.57,15.73a10,10,0,1,0-3.07,13.5l-.63,2.78,5.45,1.24,7.27-32Zm-13,27.65a5,5,0,1,1,5.95-3.75A5,5,0,0,1,437.3,731.23Z" transform="translate(-8.54 -0.7)"/><path class="cls-1" d="M442.32,614.61,418.37,629.7a17.53,17.53,0,1,0-20.56,12.95l-4.24,2.67,5.23,8.3,48.75-30.71Zm-50.41,18.22a8.73,8.73,0,1,1,12,2.73A8.73,8.73,0,0,1,391.91,632.83Z" transform="translate(-8.54 -0.7)"/><path class="cls-1" d="M373.81,674.93l8.37,1.89a5.31,5.31,0,1,0,7.92,5.73,5.35,5.35,0,0,0-.74-4.1l1.48.34.66-2.9-17-3.86Zm14.71,6.89a2.65,2.65,0,1,1-2-3.16A2.65,2.65,0,0,1,388.52,681.82Z" transform="translate(-8.54 -0.7)"/><path class="cls-1" d="M224.29,656.91,236,649.55a8.55,8.55,0,1,0,10-6.31l2.07-1.31-2.55-4-23.77,15ZM248.87,648a4.26,4.26,0,1,1-5.87-1.33A4.26,4.26,0,0,1,248.87,648Z" transform="translate(-8.54 -0.7)"/><g class="cls-2"><path class="cls-3" d="M423.84,654l-1.49,6.55a16.35,16.35,0,1,0,5.52,1.45l1.53-6.74Zm6.76,16.78a11.36,11.36,0,1,1-9.37-5.29l-1.12,5,5.56,1.26,1.06-4.67A11.23,11.23,0,0,1,430.6,670.79Z" transform="translate(-8.54 -0.7)"/><text class="cls-4" transform="matrix(-0.53, -0.85, 0.85, -0.53, 420.04, 681.37)">^^</text></g><g class="cls-2"><path class="cls-3" d="M400.06,716.94l-5-1.13A12.48,12.48,0,1,0,394,720l5.14,1.17Zm-12.79,5.16a8.69,8.69,0,1,1,4-7.15l-3.78-.85-1,4.24,3.56.8A8.57,8.57,0,0,1,387.27,722.1Z" transform="translate(-8.54 -0.7)"/><text class="cls-5" transform="matrix(0.85, -0.53, 0.53, 0.85, 370.07, 719.83)">^^</text></g><g class="cls-2"><path class="cls-3" d="M290.57,634l7.9,12.54a36.07,36.07,0,1,0,10.88-6.35l-8.13-12.91Zm36.76,15.64a25.09,25.09,0,1,1-22.9,6.37l6,9.5,10.65-6.71-5.63-8.95A25,25,0,0,1,327.33,649.64Z" transform="translate(-8.54 -0.7)"/><text class="cls-6" transform="translate(333.36 669.78) rotate(-167.21)">^^</text></g><g class="cls-2"><path class="cls-3" d="M212.34,714.37l7.8-4.92a22.45,22.45,0,1,0-3.95-6.77l-8,5.06Zm9.73-22.87a15.62,15.62,0,1,1,4,14.24l5.91-3.72-4.17-6.63-5.57,3.51A15.53,15.53,0,0,1,222.07,691.5Z" transform="translate(-8.54 -0.7)"/><text class="cls-7" transform="translate(226.44 681.77) rotate(102.79)">^^</text></g><g class="cls-2"><path class="cls-3" d="M195.94,674.72l-4.54-7.2a20.73,20.73,0,1,0-6.24,3.64l4.67,7.41Zm-21.1-9a14.39,14.39,0,1,1,17.21-10.85,14.25,14.25,0,0,1-4.07,7.2l-3.43-5.46-6.12,3.85,3.24,5.14A14.31,14.31,0,0,1,174.84,665.74Z" transform="translate(-8.54 -0.7)"/><text class="cls-8" transform="translate(157.92 653.13) rotate(12.79)">^^</text></g><g class="cls-2"><path class="cls-3" d="M122.6,717.65,120,713.49a11.95,11.95,0,1,0-3.61,2.11l2.7,4.28Zm-12.19-5.19a8.33,8.33,0,1,1,7.59-2.11l-2-3.15-3.54,2.23,1.87,3A8.18,8.18,0,0,1,110.41,712.46Z" transform="translate(-8.54 -0.7)"/><text class="cls-10" transform="translate(97.02 704.89) rotate(12.79)">^^</text></g><g class="cls-2"><path class="cls-3" d="M119,607.13,103.35,617a44.92,44.92,0,1,0,7.92,13.56l16.08-10.14ZM99.49,653a31.28,31.28,0,1,1-7.93-28.53l-11.85,7.46,8.37,13.27,11.15-7A31,31,0,0,1,99.49,653Z" transform="translate(-8.54 -0.7)"/><text class="cls-9" transform="translate(65.02 670.42) rotate(-77.21)">^^</text></g><path class="cls-1" d="M147.74,487.85l5.09-22.46a14.27,14.27,0,1,0,4.38-19.28l.9-4-7.78-1.77L140,486.08Zm18.51-39.48a7.1,7.1,0,1,1-8.49,5.35A7.1,7.1,0,0,1,166.25,448.37Z" transform="translate(-8.54 -0.7)"/><path class="cls-1" d="M10.36,462.36l15.73,3.57A10,10,0,1,0,39.59,469l2.78.64,1.24-5.46-32-7.26Zm27.65,13a5,5,0,1,1-3.75-5.94A5,5,0,0,1,38,475.32Z" transform="translate(-8.54 -0.7)"/><path class="cls-1" d="M311.57,487l-15.73-3.57a10,10,0,1,0-13.5-3.07l-2.78-.63-1.24,5.45,32,7.27Zm-27.65-13a5,5,0,1,1,3.75,6A5,5,0,0,1,283.92,474Z" transform="translate(-8.54 -0.7)"/><path class="cls-1" d="M452.1,456.84l-3.57,15.73a10,10,0,1,0-3.07,13.5l-.63,2.78,5.45,1.24,7.27-32Zm-13,27.65a5,5,0,1,1,5.95-3.75A5,5,0,0,1,439.13,484.49Z" transform="translate(-8.54 -0.7)"/><path class="cls-1" d="M375.64,428.19l8.37,1.9a5.25,5.25,0,0,0-2.44,3.37,5.31,5.31,0,1,0,9.61-1.74l1.49.33.65-2.9-17-3.86Zm14.7,6.89a2.64,2.64,0,1,1-2-3.16A2.64,2.64,0,0,1,390.34,435.08Z" transform="translate(-8.54 -0.7)"/><path class="cls-1" d="M226.12,410.17l11.68-7.35a8.55,8.55,0,1,0,10-6.32l2.07-1.3-2.55-4.05-23.77,15Zm24.57-8.88a4.25,4.25,0,1,1-5.86-1.33A4.24,4.24,0,0,1,250.69,401.29Z" transform="translate(-8.54 -0.7)"/><g class="cls-2"><path class="cls-3" d="M425.67,407.27l-1.49,6.55a16.35,16.35,0,1,0,5.52,1.45l1.53-6.74Zm6.76,16.78a11.35,11.35,0,1,1-15.65-3.55,11.24,11.24,0,0,1,6.28-1.74l-1.12,5L427.5,425l1.06-4.67A11.32,11.32,0,0,1,432.43,424.05Z" transform="translate(-8.54 -0.7)"/><text class="cls-4" transform="matrix(-0.53, -0.85, 0.85, -0.53, 421.86, 434.63)">^^</text></g><g class="cls-2"><path class="cls-3" d="M401.89,470.21l-5-1.14a12.47,12.47,0,1,0-1.11,4.21l5.14,1.16Zm-12.79,5.15a8.65,8.65,0,1,1,2.7-11.93,8.55,8.55,0,0,1,1.33,4.79l-3.78-.86-1,4.24,3.56.81A8.72,8.72,0,0,1,389.1,475.36Z" transform="translate(-8.54 -0.7)"/><text class="cls-5" transform="matrix(0.85, -0.53, 0.53, 0.85, 371.9, 473.09)">^^</text></g><g class="cls-2"><path class="cls-3" d="M292.4,387.26l7.9,12.55a36.11,36.11,0,1,0,10.88-6.35l-8.13-12.91Zm36.76,15.65a25.07,25.07,0,1,1-22.9,6.36l6,9.5,10.65-6.71-5.63-8.95A24.84,24.84,0,0,1,329.16,402.91Z" transform="translate(-8.54 -0.7)"/><text class="cls-6" transform="translate(335.19 423.04) rotate(-167.21)">^^</text></g><g class="cls-2"><path class="cls-3" d="M214.17,467.63l7.8-4.91A22.46,22.46,0,1,0,218,456L210,461Zm9.73-22.87a15.6,15.6,0,1,1,4,14.25l5.91-3.73-4.18-6.62-5.56,3.5A15.52,15.52,0,0,1,223.9,444.76Z" transform="translate(-8.54 -0.7)"/><text class="cls-7" transform="translate(228.26 435.04) rotate(102.79)">^^</text></g><g class="cls-2"><path class="cls-3" d="M197.77,428l-4.54-7.2a20.71,20.71,0,0,0-8.79-36A20.73,20.73,0,1,0,187,424.43l4.66,7.41Zm-21.1-9a14.39,14.39,0,1,1,17.21-10.84,14.22,14.22,0,0,1-4.07,7.19l-3.44-5.45-6.11,3.85,3.23,5.13A14.27,14.27,0,0,1,176.67,419Z" transform="translate(-8.54 -0.7)"/><text class="cls-8" transform="translate(159.75 406.4) rotate(12.79)">^^</text></g><g class="cls-2"><path class="cls-3" d="M138.6,395.18,123,405a44.92,44.92,0,1,0,7.92,13.56L147,408.46ZM119.1,441a31.26,31.26,0,1,1-7.93-28.54l-11.84,7.47,8.36,13.27,11.15-7A31,31,0,0,1,119.1,441Z" transform="translate(-8.54 -0.7)"/><text class="cls-9" transform="translate(84.63 458.47) rotate(-77.21)">^^</text></g><path class="cls-1" d="M320.18,257.22l-5.1,22.46A14.28,14.28,0,1,0,310.7,299l-.9,4,7.79,1.77L328,259ZM301.66,296.7a7.1,7.1,0,1,1,8.5-5.35A7.1,7.1,0,0,1,301.66,296.7Z" transform="translate(-8.54 -0.7)"/><path class="cls-1" d="M457.55,282.71l-15.73-3.57a10,10,0,1,0-13.5-3.06l-2.78-.64-1.24,5.46,32,7.26Zm-27.65-13a5,5,0,1,1,3.75,5.94A5,5,0,0,1,429.9,269.75Z" transform="translate(-8.54 -0.7)"/><path class="cls-1" d="M156.35,258.08l15.72,3.57a10,10,0,1,0,13.5,3.07l2.78.63,1.24-5.45-32-7.27Zm27.64,13a5,5,0,1,1-3.75-5.95A5,5,0,0,1,184,271.05Z" transform="translate(-8.54 -0.7)"/><path class="cls-1" d="M15.82,288.22l3.57-15.72A10,10,0,1,0,22.45,259l.63-2.78L17.63,255l-7.27,32Zm13-27.64a5,5,0,1,1-5.94,3.75A5,5,0,0,1,28.78,260.58Z" transform="translate(-8.54 -0.7)"/><path class="cls-1" d="M23.77,377.2l24-15.09a17.54,17.54,0,1,0,20.55-12.95l4.25-2.68-5.24-8.3L18.53,368.89ZM74.17,359a8.73,8.73,0,1,1-12-2.73A8.73,8.73,0,0,1,74.17,359Z" transform="translate(-8.54 -0.7)"/><path class="cls-1" d="M92.27,316.88,83.91,315a5.32,5.32,0,1,0-7.18-1.63L75.25,313l-.66,2.9,17,3.86ZM77.57,310a2.64,2.64,0,1,1,2,3.17A2.64,2.64,0,0,1,77.57,310Z" transform="translate(-8.54 -0.7)"/><path class="cls-1" d="M241.79,334.9l-11.67,7.35a8.55,8.55,0,1,0-10,6.32l-2.06,1.3,2.55,4.05,23.76-15Zm-24.57,8.88a4.25,4.25,0,1,1,5.86,1.33A4.24,4.24,0,0,1,217.22,343.78Z" transform="translate(-8.54 -0.7)"/><g class="cls-2"><path class="cls-3" d="M42.24,337.8l1.49-6.55a16.33,16.33,0,1,0-5.52-1.45l-1.53,6.74ZM35.48,321a11.37,11.37,0,1,1,9.37,5.29l1.13-5-5.56-1.26-1.06,4.67A11.35,11.35,0,0,1,35.48,321Z" transform="translate(-8.54 -0.7)"/><text class="cls-4" transform="matrix(0.53, 0.85, -0.85, 0.53, 28.97, 309.03)">^^</text></g><g class="cls-2"><path class="cls-3" d="M66,274.86,71,276a12.41,12.41,0,1,0,1.1-4.21L67,270.62Zm12.79-5.15a8.65,8.65,0,1,1-4,7.14l3.78.86,1-4.24L76,272.66A8.54,8.54,0,0,1,78.82,269.71Z" transform="translate(-8.54 -0.7)"/><text class="cls-5" transform="matrix(-0.85, 0.53, -0.53, -0.85, 78.94, 270.57)">^^</text></g><g class="cls-2"><path class="cls-3" d="M175.52,357.81l-7.91-12.55a36.1,36.1,0,1,0-10.88,6.35l8.13,12.91Zm-36.77-15.65a25.09,25.09,0,1,1,22.9-6.36l-6-9.5L145,333l5.64,8.95A24.89,24.89,0,0,1,138.75,342.16Z" transform="translate(-8.54 -0.7)"/><text class="cls-6" transform="translate(115.65 320.62) rotate(12.79)">^^</text></g><g class="cls-2"><path class="cls-3" d="M253.75,277.44l-7.81,4.91a22.46,22.46,0,1,0,3.95,6.77l8-5.06ZM244,300.31a15.59,15.59,0,1,1-3.95-14.25l-5.92,3.73,4.18,6.62,5.57-3.5A15.52,15.52,0,0,1,244,300.31Z" transform="translate(-8.54 -0.7)"/><text class="cls-7" transform="translate(222.57 308.63) rotate(-77.21)">^^</text></g><g class="cls-2"><path class="cls-3" d="M270.14,317.09l4.54,7.2a20.68,20.68,0,1,0,6.25-3.65l-4.67-7.41Zm21.11,9a14.39,14.39,0,1,1-13.15,3.65l3.44,5.45,6.11-3.85-3.23-5.13A14.3,14.3,0,0,1,291.25,326.07Z" transform="translate(-8.54 -0.7)"/><text class="cls-8" transform="translate(291.09 337.27) rotate(-167.21)">^^</text></g><g class="cls-2"><path class="cls-3" d="M355.47,260.4l2.62,4.16a11.95,11.95,0,1,0,3.61-2.11l-2.7-4.28Zm12.2,5.19a8.32,8.32,0,1,1-7.6,2.11l2,3.15,3.54-2.23-1.87-3A8.23,8.23,0,0,1,367.67,265.59Z" transform="translate(-8.54 -0.7)"/><text class="cls-10" transform="translate(363.98 271.75) rotate(-167.21)">^^</text></g><g class="cls-2"><path class="cls-3" d="M347.1,384.67l15.64-9.85a44.93,44.93,0,1,0-7.92-13.56l-16.09,10.13Zm19.5-45.82a31.26,31.26,0,1,1,7.93,28.54l11.84-7.46L378,346.65l-11.15,7A31,31,0,0,1,366.6,338.85Z" transform="translate(-8.54 -0.7)"/><text class="cls-9" transform="translate(384 319.98) rotate(102.79)">^^</text></g></svg>