<svg id="Capa_10" data-name="Capa 10" xmlns="http://www.w3.org/2000/svg" viewBox="0 0 40.72 47.79"><defs><style>.cls-1{fill:#6dc7dd;}</style></defs><path class="cls-1" d="M1650.36,215.55l-8.29-9.66-9.44-11a2.79,2.79,0,0,0-4.24,0l-9.44,11-8.29,9.66c-1.45,1.69.36,3.81,3.27,3.81h.9v19.52a2.83,2.83,0,0,0,2.83,2.83h8.49v-12.3a1.11,1.11,0,0,1,1.11-1.11h6.51a1.11,1.11,0,0,1,1.11,1.11v12.3h8.48a2.84,2.84,0,0,0,2.84-2.83V219.36h.9C1650,219.36,1651.81,217.24,1650.36,215.55Z" transform="translate(-1610.15 -193.92)"/></svg>