<svg id="Capa_10" data-name="Capa 10" xmlns="http://www.w3.org/2000/svg" viewBox="0 0 33 46.85"><defs><style>.cls-1{fill:#6dc7dd;}</style></defs><path class="cls-1" d="M1473.83,261a4.73,4.73,0,1,0,2.18,8.91l-1.41-1.41,1.68-1.67,1.49,1.49a4.64,4.64,0,0,0,.79-2.6A4.72,4.72,0,0,0,1473.83,261Z" transform="translate(-1457.7 -254.44)"/><path class="cls-1" d="M1474.2,254.44a16.5,16.5,0,0,0-16.5,16.5c0,4,3.84,10.59,3.84,10.59l6.33,11.26,4,7.15a2.66,2.66,0,0,0,4.63,0l4-7.15,6.33-11.26s3.84-6.55,3.84-10.59A16.5,16.5,0,0,0,1474.2,254.44Zm5.36,19-2-2a6.71,6.71,0,0,1-3.7,1.1,6.82,6.82,0,1,1,5.44-2.72l2,2Z" transform="translate(-1457.7 -254.44)"/></svg>