<svg id="Capa_10" data-name="Capa 10" xmlns="http://www.w3.org/2000/svg" viewBox="0 0 43.77 47.01"><defs><style>.cls-1{fill:#6dc7dd;}</style></defs><path class="cls-1" d="M1573.38,304.05a5.51,5.51,0,0,0,5.51-5.52h-11A5.52,5.52,0,0,0,1573.38,304.05Z" transform="translate(-1550.62 -257.04)"/><path class="cls-1" d="M1594.31,295.24l-2.89-5.38s-3.19-5.68-3.38-5.68V273.71c0-9.21-7-16.67-15.54-16.67S1557,264.5,1557,273.71v10.47c-.19,0-3.38,5.68-3.38,5.68l-2.89,5.38a.6.6,0,0,0,.48.9h42.65A.6.6,0,0,0,1594.31,295.24Z" transform="translate(-1550.62 -257.04)"/></svg>