<svg id="Capa_10" data-name="Capa 10" xmlns="http://www.w3.org/2000/svg" viewBox="0 0 69.17 47.13"><defs><style>.cls-1{fill:#6dc7dd;}</style></defs><circle class="cls-1" cx="10.97" cy="18.44" r="5.62"/><path class="cls-1" d="M1352.45,642.48h38a0,0,0,0,0,0-.05v-4c0-11.09-8.06-20.56-18.42-20.93-10.83-.39-19.73,8.89-19.73,20.39v4.59A0,0,0,0,0,1352.45,642.48Z" transform="translate(-1336.84 -595.35)"/><circle class="cls-1" cx="34.63" cy="9.76" r="9.76"/><path class="cls-1" d="M1356.23,625.24a10.59,10.59,0,0,0-8-4.35c-6.23-.22-11.34,5.11-11.34,11.73v2.64a0,0,0,0,0,0,0h15.33A21,21,0,0,1,1356.23,625.24Z" transform="translate(-1336.84 -595.35)"/><circle class="cls-1" cx="58.2" cy="18.44" r="5.62"/><path class="cls-1" d="M1386.62,625.24a10.59,10.59,0,0,1,8.05-4.35c6.23-.22,11.34,5.11,11.34,11.73v2.64a0,0,0,0,1,0,0h-15.33A21,21,0,0,0,1386.62,625.24Z" transform="translate(-1336.84 -595.35)"/></svg>