<svg id="Capa_10" data-name="Capa 10" xmlns="http://www.w3.org/2000/svg" viewBox="0 0 45.66 41.18"><defs><style>.cls-1{fill:#6dc7dd;}</style></defs><path class="cls-1" d="M1679.66,302.66c-.8,0-1.6,0-2.4,0-.42,0-.59-.18-.59-.59V297.9c0-.39.17-.58.56-.57h4.9c.39,0,.57.16.56.56q0,2.12,0,4.23c0,.38-.16.55-.53.54Z" transform="translate(-1669.74 -265.76)"/><path class="cls-1" d="M1679.69,289.91h2.49c.36,0,.51.15.51.51,0,1.42,0,2.85,0,4.27,0,.39-.19.54-.54.54h-4.94c-.37,0-.54-.18-.54-.55v-4.23c0-.39.17-.55.57-.54Z" transform="translate(-1669.74 -265.76)"/><path class="cls-1" d="M1688.22,302.66h-2.36c-.52,0-.62-.09-.62-.63,0-1.36,0-2.73,0-4.09,0-.5.12-.61.61-.61h4.81c.48,0,.59.12.59.61,0,1.38,0,2.76,0,4.14,0,.43-.17.59-.59.58C1689.86,302.65,1689,302.66,1688.22,302.66Z" transform="translate(-1669.74 -265.76)"/><path class="cls-1" d="M1696.79,302.66c-.8,0-1.6,0-2.4,0-.43,0-.59-.19-.59-.59v-4.19c0-.38.17-.57.56-.56h4.9c.39,0,.56.16.56.57,0,1.41,0,2.82,0,4.23,0,.38-.16.54-.54.53Z" transform="translate(-1669.74 -265.76)"/><path class="cls-1" d="M1696.83,287.77h-2.5c-.36,0-.53-.15-.53-.5V283a.45.45,0,0,1,.5-.5h5q.48,0,.48.51c0,1.44,0,2.88,0,4.32,0,.34-.15.48-.49.48Z" transform="translate(-1669.74 -265.76)"/><path class="cls-1" d="M1688.26,287.77h-2.49c-.37,0-.53-.15-.53-.5V283a.45.45,0,0,1,.5-.5h5c.32,0,.47.17.47.51,0,1.44,0,2.88,0,4.32,0,.34-.16.48-.49.48Z" transform="translate(-1669.74 -265.76)"/><path class="cls-1" d="M1705.36,287.77h-2.45c-.39,0-.54-.16-.54-.53,0-1.41,0-2.82,0-4.23,0-.41.2-.56.58-.56h4.86c.4,0,.59.16.58.59,0,1.38,0,2.77,0,4.15,0,.51-.07.58-.6.58Z" transform="translate(-1669.74 -265.76)"/><path class="cls-1" d="M1688.28,289.91h2.45c.38,0,.53.16.52.53,0,1.41,0,2.82,0,4.23,0,.41-.2.56-.57.56h-4.9c-.39,0-.56-.18-.56-.57,0-1.4,0-2.79,0-4.19,0-.41.17-.58.59-.56C1686.65,289.93,1687.46,289.91,1688.28,289.91Z" transform="translate(-1669.74 -265.76)"/><path class="cls-1" d="M1696.83,289.91h2.45c.37,0,.54.14.54.52,0,1.41,0,2.83,0,4.24,0,.41-.19.56-.57.56h-4.86c-.41,0-.6-.17-.59-.59v-4.19c0-.39.17-.55.57-.54Z" transform="translate(-1669.74 -265.76)"/><path class="cls-1" d="M1705.39,289.91h2.45c.37,0,.54.14.54.52,0,1.41,0,2.83,0,4.24,0,.38-.15.56-.52.56h-4.95c-.36,0-.55-.16-.54-.54v-4.28c0-.35.16-.51.52-.5Z" transform="translate(-1669.74 -265.76)"/><path class="cls-1" d="M1712.19,265.76H1673a3.21,3.21,0,0,0-3.21,3.21v34.75a3.22,3.22,0,0,0,3.21,3.22h39.24a3.22,3.22,0,0,0,3.21-3.22V269A3.21,3.21,0,0,0,1712.19,265.76Zm-7.65,2.87a3,3,0,1,1-3,3A3,3,0,0,1,1704.54,268.63Zm-23,0a3,3,0,1,1-3,3A3,3,0,0,1,1681.51,268.63Zm32.12,34.55c0,1.1-1.32,2-3,2h-36.12c-1.63,0-3-.9-3-2V281.57c0-1.11,1.33-2,3-2h36.12c1.64,0,3,.89,3,2Z" transform="translate(-1669.74 -265.76)"/></svg>