<svg id="Capa_10" data-name="Capa 10" xmlns="http://www.w3.org/2000/svg" viewBox="0 0 33.2 47.12"><defs><style>.cls-1{fill:#6dc7dd;}</style></defs><path class="cls-1" d="M1515.17,254.16a16.6,16.6,0,0,0-16.6,16.59c0,4.06,3.87,10.65,3.87,10.65l6.36,11.33,4,7.19a2.67,2.67,0,0,0,4.65,0l4-7.19,6.37-11.33s3.87-6.59,3.87-10.65A16.6,16.6,0,0,0,1515.17,254.16Zm7.33,6.27a1.68,1.68,0,1,1-1.68,1.68A1.68,1.68,0,0,1,1522.5,260.43Zm-7.31.66a2.07,2.07,0,1,1-2.07,2.07A2.07,2.07,0,0,1,1515.19,261.09Zm-7.34,0a1.68,1.68,0,1,1-1.67,1.68A1.68,1.68,0,0,1,1507.85,261.09Zm3.28,7.74v.29h-6.55v-.74a3.27,3.27,0,0,1,3.39-3.27,3.33,3.33,0,0,1,3.16,3.35Zm8.09,1.79V271h-8.07v-.91a4,4,0,0,1,4.18-4,4.09,4.09,0,0,1,3.89,4.14Zm6.55-2.46v.29h-6.55v-.73a3.28,3.28,0,0,1,3.39-3.28,3.33,3.33,0,0,1,3.16,3.36Z" transform="translate(-1498.57 -254.16)"/></svg>