<svg id="Capa_10" data-name="Capa 10" xmlns="http://www.w3.org/2000/svg" viewBox="0 0 36.55 45.56"><defs><style>.cls-1{fill:#6dc7dd;}</style></defs><path class="cls-1" d="M1242.52,244.9c0-5.54,0-11.07,0-16.6,0-3.5,1.75-5.24,5.28-5.24h4.94c.45,0,.84,0,.93-.6s.68-1,1.38-1h11.42c.68,0,1.27.24,1.37,1s.49.6.94.6c1.83,0,3.66,0,5.49,0a4.53,4.53,0,0,1,4.79,4.85q0,17.15,0,34.3a4.51,4.51,0,0,1-4.73,4.8q-13.51,0-27,0a4.52,4.52,0,0,1-4.79-4.85C1242.51,256.41,1242.52,250.65,1242.52,244.9Zm6.6-1.2c0,4.47,0,8.94,0,13.41,0,.74.15,1,1,1q10.7,0,21.41,0c.73,0,1-.12,1-.94q0-13.52,0-27c0-.66-.14-.86-.84-.86q-10.82,0-21.63,0c-.75,0-.89.23-.89.92C1249.14,234.69,1249.12,239.19,1249.12,243.7Zm27.49,1.37v-1.54q0-7.8,0-15.61a2.11,2.11,0,0,0-2.23-2.41c-1.91,0-3.81,0-5.71,0-.45,0-.78,0-.78.62s.32.71.83.71c1.53,0,3.07,0,4.61,0,1.24,0,1.58.33,1.58,1.56q0,15.29,0,30.57c0,1.2-.38,1.56-1.59,1.56h-25c-1.22,0-1.59-.37-1.59-1.57q0-15.28,0-30.56c0-1.23.35-1.55,1.58-1.56,1.51,0,3,0,4.51,0,.49,0,.84,0,.84-.69s-.42-.64-.87-.64h-5.16c-1.86,0-2.6.74-2.6,2.6q0,16.92,0,33.86c0,1.84.74,2.58,2.61,2.58H1274c1.93,0,2.65-.73,2.65-2.66Q1276.61,253.49,1276.61,245.07Zm-15.78-21.17h-2.62c-2.18,0-2.15,0-2.1,2.14,0,.63.21.8.82.79,2.15,0,4.3,0,6.45,0s2.12,0,2-2.19c0-.59-.21-.75-.76-.74C1263.38,223.92,1262.11,223.9,1260.83,223.9Z" transform="translate(-1242.51 -221.47)"/><path class="cls-1" d="M1260.79,234.4c-2.27,0-4.53,0-6.8,0-.71,0-1.54,0-1.52-.94s.87-.9,1.57-.9h13.38c.73,0,1.65-.1,1.62.95s-1,.88-1.67.88Z" transform="translate(-1242.51 -221.47)"/><path class="cls-1" d="M1260.8,242.4c2.3,0,4.6,0,6.91,0,.68,0,1.34.11,1.35.92s-.62.94-1.32.94h-13.93c-.68,0-1.33-.1-1.34-.91s.63-.94,1.31-.94Z" transform="translate(-1242.51 -221.47)"/><path class="cls-1" d="M1259.47,239.35h-5.6c-.71,0-1.42-.1-1.4-1s.68-.92,1.36-.92c3.8,0,7.61,0,11.41,0,.69,0,1.33.12,1.34.93s-.69,1-1.4,1Z" transform="translate(-1242.51 -221.47)"/><path class="cls-1" d="M1259.53,249.14h-5.7c-.66,0-1.35,0-1.36-.88s.6-1,1.3-1h11.51c.7,0,1.31.12,1.3,1s-.69.88-1.35.88Z" transform="translate(-1242.51 -221.47)"/><path class="cls-1" d="M1257.08,254.09h-3.4c-.65,0-1.22-.2-1.22-.94s.56-1,1.22-1q3.39,0,6.78,0c.66,0,1.21.2,1.22,1s-.56.94-1.21.94Z" transform="translate(-1242.51 -221.47)"/></svg>