<svg id="Capa_10" data-name="Capa 10" xmlns="http://www.w3.org/2000/svg" viewBox="0 0 58.61 46.9"><defs><style>.cls-1{fill:#6dc7dd;}.cls-2{fill:none;stroke:#6dc7dd;stroke-miterlimit:10;}</style></defs><path class="cls-1" d="M1494.73,193.58a16.21,16.21,0,0,0-16.21,16.21c0,4,3.78,10.4,3.78,10.4l6.21,11.06,4,7a2.61,2.61,0,0,0,4.55,0l3.94-7,6.22-11.06s3.78-6.44,3.78-10.4A16.21,16.21,0,0,0,1494.73,193.58Zm0,1.81a3.78,3.78,0,1,1-3.77,3.77A3.77,3.77,0,0,1,1494.73,195.39Zm7.38,17.4v.66a0,0,0,0,1,0,0h-14.71a0,0,0,0,1,0,0v-1.66a7.37,7.37,0,0,1,7.63-7.37,7.5,7.5,0,0,1,7.12,7.56Z" transform="translate(-1478.52 -193.58)"/><path class="cls-1" d="M1527,194.06a10.11,10.11,0,0,0-10.1,10.1c0,2.47,2.36,6.48,2.36,6.48l3.87,6.9,2.46,4.37a1.63,1.63,0,0,0,2.83,0l2.46-4.37,3.87-6.9s2.35-4,2.35-6.48A10.1,10.1,0,0,0,1527,194.06Zm4.46,3.82a1,1,0,1,1-1,1A1,1,0,0,1,1531.49,197.88Zm-4.44.41a1.26,1.26,0,1,1-1.26,1.25A1.25,1.25,0,0,1,1527.05,198.29Zm-4.47,0a1,1,0,0,1,0,2,1,1,0,1,1,0-2Zm2,4.7v.18h-4v-.45a2,2,0,0,1,2.06-2,2,2,0,0,1,1.93,2Zm4.92,1.09v.22h-4.91v-.55a2.46,2.46,0,0,1,2.54-2.46,2.51,2.51,0,0,1,2.37,2.52Zm4-1.49v.17h-4v-.44a2,2,0,0,1,2.06-2,2,2,0,0,1,1.93,2.05Z" transform="translate(-1478.52 -193.58)"/><path class="cls-2" d="M1496.51,240s26.17-.66,26.2-3.38-16.89-1.42-16.31-3.5,16.54-8.79,19.84-8.71" transform="translate(-1478.52 -193.58)"/></svg>