<svg id="Capa_10" data-name="Capa 10" xmlns="http://www.w3.org/2000/svg" viewBox="0 0 40.72 47.79"><defs><style>.cls-1{fill:#075f73;}</style></defs><path class="cls-1" d="M1662.9,345.55l-8.3-9.66-9.43-11a2.79,2.79,0,0,0-4.24,0l-9.44,11-8.29,9.66c-1.46,1.69.36,3.8,3.26,3.8h.9v19.53a2.84,2.84,0,0,0,2.84,2.83h8.48v-12.3a1.11,1.11,0,0,1,1.11-1.11h6.51a1.11,1.11,0,0,1,1.11,1.11v12.3h8.49a2.83,2.83,0,0,0,2.83-2.83V349.35h.9C1662.53,349.35,1664.35,347.24,1662.9,345.55Z" transform="translate(-1622.69 -323.92)"/></svg>