<svg id="Capa_10" data-name="Capa 10" xmlns="http://www.w3.org/2000/svg" viewBox="0 0 52.83 40.62"><defs><style>.cls-1{fill:#6dc7dd;}</style></defs><path class="cls-1" d="M1399.81,244.26c-4.94,0-9.88,0-14.82,0-.49,0-.74.08-.93.62a5.59,5.59,0,0,1-10.52,0c-.19-.55-.45-.66-1-.65-2.51,0-5,0-7.52,0a1.54,1.54,0,0,1-1.31-.46,1.2,1.2,0,0,1-.19-1.35,1.29,1.29,0,0,1,1.28-.76c2.51,0,5,0,7.52,0a1.1,1.1,0,0,0,1.27-.85A5.59,5.59,0,0,1,1384,241c.21.61.5.71,1.07.71h29.29a5.77,5.77,0,0,1,.72,0,1.24,1.24,0,0,1,1.12,1.21,1.18,1.18,0,0,1-1,1.27,3.53,3.53,0,0,1-.86.07ZM1378.72,246a3.08,3.08,0,1,0-3-3.14A3.11,3.11,0,0,0,1378.72,246Z" transform="translate(-1363.41 -237.36)"/><path class="cls-1" d="M1403.76,273.64c-3.66,0-7.33,0-11,0a.7.7,0,0,0-.8.57,5.59,5.59,0,0,1-10.57,0,.72.72,0,0,0-.86-.58h-15.48a1.6,1.6,0,0,1-1.22-.34,1.21,1.21,0,0,1-.38-1.25,1.18,1.18,0,0,1,.92-.92,4.08,4.08,0,0,1,.79-.06c5.13,0,10.27,0,15.4,0,.44,0,.66-.09.82-.55a5.58,5.58,0,0,1,10.59.06c.19.55.5.48.87.48h21.92c.92,0,1.49.54,1.47,1.33a1.3,1.3,0,0,1-1.48,1.23Zm-20.13-1.28a3.07,3.07,0,1,0,3.06-3.07A3.06,3.06,0,0,0,1383.63,272.36Z" transform="translate(-1363.41 -237.36)"/><path class="cls-1" d="M1381.22,258.92H1365a1.47,1.47,0,0,1-1.35-.51,1.26,1.26,0,0,1,.89-2,8.19,8.19,0,0,1,.86,0h32.18c.46,0,.76,0,1-.58a5.58,5.58,0,0,1,10.5-.13.91.91,0,0,0,1.07.72c1.52,0,3,0,4.55,0,1,0,1.58.48,1.57,1.29s-.57,1.23-1.54,1.23c-1.61,0-3.23,0-4.84,0a.64.64,0,0,0-.72.49,5.59,5.59,0,0,1-10.64,0c-.16-.48-.42-.48-.8-.48Zm25.65-1.26a3.06,3.06,0,1,0-3,3.1A3.08,3.08,0,0,0,1406.87,257.66Z" transform="translate(-1363.41 -237.36)"/></svg>