<svg id="Capa_10" data-name="Capa 10" xmlns="http://www.w3.org/2000/svg" viewBox="0 0 58.61 46.9"><defs><style>.cls-1{fill:#075f73;}.cls-2{fill:none;stroke:#075f73;stroke-miterlimit:10;}</style></defs><path class="cls-1" d="M1507.27,323.57a16.22,16.22,0,0,0-16.22,16.22c0,4,3.78,10.4,3.78,10.4l6.22,11.06,3.94,7a2.61,2.61,0,0,0,4.55,0l4-7,6.21-11.06s3.78-6.44,3.78-10.4A16.22,16.22,0,0,0,1507.27,323.57Zm0,1.81a3.78,3.78,0,1,1-3.78,3.78A3.77,3.77,0,0,1,1507.27,325.38Zm7.37,17.41v.66h-14.75v-1.66a7.37,7.37,0,0,1,7.63-7.37,7.5,7.5,0,0,1,7.12,7.56Z" transform="translate(-1491.05 -323.57)"/><path class="cls-1" d="M1539.57,324.06a10.1,10.1,0,0,0-10.1,10.1c0,2.47,2.35,6.48,2.35,6.48l3.88,6.89,2.45,4.38a1.63,1.63,0,0,0,2.83,0l2.46-4.38,3.88-6.89s2.35-4,2.35-6.48A10.1,10.1,0,0,0,1539.57,324.06Zm4.46,3.82a1,1,0,1,1-1,1A1,1,0,0,1,1544,327.88Zm-4.45.4a1.26,1.26,0,1,1-1.26,1.26A1.26,1.26,0,0,1,1539.58,328.28Zm-4.46,0a1,1,0,1,1-1,1A1,1,0,0,1,1535.12,328.28Zm2,4.71v.17h-4v-.44a2,2,0,0,1,2.06-2,2,2,0,0,1,1.92,2Zm4.93,1.09v.22h-4.91v-.55a2.46,2.46,0,0,1,2.54-2.46,2.51,2.51,0,0,1,2.37,2.52Zm4-1.49v.17h-4v-.45a2,2,0,0,1,2.06-2,2,2,0,0,1,1.92,2.05Z" transform="translate(-1491.05 -323.57)"/><path class="cls-2" d="M1509,370s26.18-.66,26.21-3.38-16.89-1.42-16.32-3.5,16.55-8.79,19.84-8.71" transform="translate(-1491.05 -323.57)"/></svg>